<svg width="1200" height="675" viewBox="0 0 1200 675" fill="none" xmlns="http://www.w3.org/2000/svg">
  <defs>
    <linearGradient id="bg" x1="0" y1="0" x2="1200" y2="675" gradientUnits="userSpaceOnUse">
      <stop stop-color="#0D1B2A"/>
      <stop offset="1" stop-color="#1B263B"/>
    </linearGradient>
    <linearGradient id="card" x1="0" y1="0" x2="1" y2="1">
      <stop stop-color="#1F3A5F"/>
      <stop offset="1" stop-color="#23395D"/>
    </linearGradient>
  </defs>

  <rect width="1200" height="675" fill="url(#bg)"/>
  <circle cx="180" cy="130" r="180" fill="#3A86FF" fill-opacity="0.12"/>
  <circle cx="1030" cy="560" r="210" fill="#06D6A0" fill-opacity="0.1"/>

  <rect x="110" y="110" width="980" height="455" rx="28" fill="url(#card)" stroke="#6EA8FE" stroke-opacity="0.4"/>

  <text x="160" y="220" fill="#F4F7FB" font-family="Poppins, Arial, sans-serif" font-size="52" font-weight="700">
    E-Commerce Big Data Pipeline
  </text>
  <text x="160" y="280" fill="#C6D4E8" font-family="Poppins, Arial, sans-serif" font-size="28" font-weight="500">
    Predictive Analytics, Spark ETL, KPI Modeling
  </text>

  <g fill="#F4F7FB" font-family="Poppins, Arial, sans-serif" font-size="24" font-weight="500">
    <text x="160" y="355">Apache Spark</text>
    <text x="400" y="355">PySpark</text>
    <text x="570" y="355">Hadoop</text>
    <text x="730" y="355">AWS</text>
    <text x="860" y="355">Python</text>
    <text x="980" y="355">SQL</text>
  </g>

  <g stroke="#9FC2FF" stroke-width="3" stroke-linecap="round">
    <path d="M185 430 L305 370 L430 420 L560 340 L700 400 L845 320 L1010 365"/>
    <path d="M185 470 L305 450 L430 500 L560 440 L700 470 L845 430 L1010 455" opacity="0.7"/>
  </g>
</svg>
